<svg width="545" height="623" viewBox="0 0 545 623" fill="none" xmlns="http://www.w3.org/2000/svg">
<path d="M696 357.331C696 503.41 577.579 621.83 431.5 621.83C395.008 621.83 349.816 609.724 302.533 589.25C255.258 568.778 205.927 539.957 161.166 506.563C116.403 473.168 76.224 435.212 47.241 396.478C18.2514 357.735 0.5 318.265 0.5 281.831C0.5 245.272 4.46666 217.024 14.6075 193.543C24.7431 170.073 41.0651 151.323 65.8512 133.792C90.6486 116.253 123.904 99.9443 167.89 81.3574C199.916 67.8244 237.609 53.0924 281.846 35.8032C298.361 29.3484 315.788 22.5372 334.173 15.2989C393.692 -5.16232 446.038 -3.14876 491.083 13.6388C536.14 30.4304 573.929 62.017 604.294 100.755C665.035 178.245 696 284.26 696 357.331Z" stroke="#FC0E28"/>
</svg>
