<svg width="641" height="512" viewBox="0 0 641 512" fill="none" xmlns="http://www.w3.org/2000/svg">
<path d="M450.506 430.694C432.487 464.487 401.474 486.028 362.914 498.194C324.347 510.362 278.256 513.141 230.152 509.418C133.942 501.971 29.8055 468.522 -38.0127 432.362C-105.765 396.237 -141.291 344.714 -150.88 285.314C-160.473 225.888 -144.118 158.51 -107.957 90.6914C-89.9703 56.9566 -45.6388 34.0267 13.0708 19.7944C71.7457 5.57052 144.636 0.0688757 219.529 1.0703C294.418 2.07169 371.288 9.57512 437.913 21.3497C504.552 33.1267 560.896 49.1688 594.762 67.2262C611.676 76.2447 623.208 86.5455 630.329 97.9109C637.446 109.271 640.178 121.728 639.44 135.101C637.961 161.88 622.57 192.312 600.608 224.813C583.105 250.716 561.472 277.876 539.476 305.49C533.883 312.512 528.266 319.563 522.689 326.63C495.186 361.476 468.624 396.712 450.506 430.694Z" stroke="#FC0E28"/>
</svg>
