<svg width="370" height="448" viewBox="0 0 370 448" fill="none" xmlns="http://www.w3.org/2000/svg">
<path d="M501 257.233C501 362.315 415.881 447.5 310.883 447.5C284.661 447.5 252.174 438.793 218.171 424.058C184.176 409.326 148.702 388.583 116.512 364.55C84.3215 340.516 55.4312 313.201 34.5934 285.331C13.7492 257.452 1 229.068 1 202.883C1 176.574 3.85268 156.261 11.1362 139.382C18.4146 122.515 30.1359 109.037 47.9487 96.4281C65.7727 83.8115 89.6817 72.0758 121.32 58.6962C144.354 48.955 171.465 38.3508 203.284 25.9051C215.163 21.2586 227.698 16.3555 240.923 11.1448C283.705 -3.57381 321.324 -2.12303 353.692 9.9495C386.072 22.0261 413.234 44.7455 435.065 72.6174C478.736 128.375 501 204.662 501 257.233Z" stroke="#FC0E28"/>
</svg>
