<svg width="256" height="306" viewBox="0 0 256 306" fill="none" xmlns="http://www.w3.org/2000/svg">
<path d="M173.316 179.565C173.316 217.225 159.736 248.661 136.808 270.684C113.878 292.709 81.568 305.347 44.0584 305.347C6.57607 305.347 -20.5343 291.257 -38.2895 267.795C-56.0602 244.314 -64.5 211.39 -64.5 173.67C-64.5 155.007 -50.7197 134.888 -28.6647 115.158C-6.63614 95.4519 23.5362 76.2329 56.0797 59.3637C88.6198 42.4962 123.51 27.9885 154.962 17.6987C186.426 7.40476 214.404 1.34692 233.134 1.34692C242.511 1.34692 248.486 2.95928 251.867 5.80901C255.2 8.6183 256.117 12.7277 255.119 18.0525C254.118 23.3929 251.203 29.86 246.999 37.2209C242.799 44.5736 237.339 52.7768 231.281 61.584C229.111 64.7375 226.866 67.9682 224.575 71.264C214.079 86.3643 202.632 102.832 193.231 119.514C181.78 139.83 173.316 160.539 173.316 179.565Z" stroke="#FC0E28"/>
</svg>
