<svg width="227" height="288" viewBox="0 0 227 288" fill="none" xmlns="http://www.w3.org/2000/svg">
<path d="M322 165.364C322 232.819 267.373 287.5 199.987 287.5C183.169 287.5 162.315 281.913 140.472 272.445C118.636 262.98 95.8481 249.653 75.1697 234.211C54.49 218.767 35.9353 201.22 22.5554 183.32C9.16911 165.412 1 147.203 1 130.425C1 113.522 2.83271 100.492 7.50008 89.6735C12.1623 78.8671 19.6713 70.2263 31.0992 62.1353C42.5384 54.0364 57.8901 46.4981 78.2223 37.8978C93.0246 31.6366 110.446 24.8209 130.895 16.8205C138.529 13.8338 146.586 10.6819 155.085 7.33217C182.544 -2.11588 206.678 -1.18162 227.439 6.56349C248.212 14.3127 265.644 28.8938 279.66 46.7928C307.703 82.604 322 131.607 322 165.364Z" stroke="#FC0E28"/>
</svg>
