<svg width="428" height="493" viewBox="0 0 428 493" fill="none" xmlns="http://www.w3.org/2000/svg">
<path d="M294 288.847C294 349.61 271.993 400.351 234.821 435.903C197.648 471.456 145.276 491.847 84.5 491.847C23.7507 491.847 -20.2202 469.102 -49.019 431.211C-77.8331 393.3 -91.5 340.171 -91.5 279.347C-91.5 249.133 -69.1062 216.633 -33.4019 184.829C2.27557 153.05 51.1313 122.065 103.812 94.8742C156.49 67.6851 212.972 44.2998 263.889 27.7128C314.818 11.1217 360.136 1.34692 390.5 1.34692C405.694 1.34692 415.458 3.94488 421.017 8.6101C426.528 13.2345 428.011 19.9877 426.384 28.6293C424.754 37.2869 420.015 47.7447 413.207 59.6135C406.404 71.4741 397.561 84.7024 387.756 98.8957C384.243 103.98 380.608 109.188 376.9 114.5C359.913 138.834 341.398 165.357 326.19 192.225C307.666 224.952 294 258.268 294 288.847Z" stroke="#FC0E28"/>
</svg>
