<svg width="477" height="380" viewBox="0 0 477 380" fill="none" xmlns="http://www.w3.org/2000/svg">
<path d="M336.012 319.795C322.676 344.806 299.719 360.756 271.159 369.767C242.592 378.78 208.444 380.841 172.797 378.081C101.499 372.563 24.324 347.774 -25.9318 320.978C-76.1219 294.217 -102.428 256.058 -109.529 212.071C-116.634 168.058 -104.522 118.143 -77.7257 67.8865C-64.4206 42.9328 -31.6097 25.9468 11.9039 15.3983C55.3827 4.85821 109.401 0.780276 164.911 1.52252C220.416 2.26471 277.39 7.82604 326.769 16.5529C376.162 25.282 417.911 37.1706 442.997 50.546C455.52 57.2235 464.049 64.8452 469.312 73.2458C474.572 81.6414 476.592 90.8481 476.046 100.737C474.952 120.55 463.562 143.082 447.284 167.172C434.313 186.368 418.281 206.495 401.977 226.964C397.83 232.17 393.666 237.397 389.531 242.637C369.144 268.467 349.449 294.594 336.012 319.795Z" stroke="#FC0E28"/>
</svg>
