<svg width="25" height="18" viewBox="0 0 25 18" fill="none" xmlns="http://www.w3.org/2000/svg">
<path d="M16.5719 9.12812L25 14.4562V3.575L16.5719 9.12812Z" fill="#3B8DD0"/>
<path d="M0 3.575V14.4562L8.42812 9.12812L0 3.575Z" fill="#3B8DD0"/>
<path d="M23.4375 0.40625H1.56253C0.782843 0.40625 0.164093 0.9875 0.0469055 1.73594L12.5 9.94063L24.9532 1.73594C24.836 0.9875 24.2172 0.40625 23.4375 0.40625Z" fill="#3B8DD0"/>
<path d="M15.1406 10.0719L12.9297 11.5281C12.7984 11.6141 12.65 11.6562 12.5 11.6562C12.35 11.6562 12.2015 11.6141 12.0703 11.5281L9.85936 10.0703L0.0499878 16.275C0.1703 17.0172 0.785925 17.5937 1.56249 17.5937H23.4375C24.214 17.5937 24.8297 17.0172 24.95 16.275L15.1406 10.0719Z" fill="#3B8DD0"/>
</svg>
