<svg width="17" height="17" viewBox="0 0 17 17" fill="none" xmlns="http://www.w3.org/2000/svg">
<path d="M9.03824 0C4.9064 1.39888 1.42112 4.25068 0 8.5C1.40489 12.7009 4.85746 15.5845 9.03824 17C12.7559 14.1226 14.7831 11.8118 16.2745 8.5C14.1339 7.05722 13.2346 6.31446 11.4991 4.08184C9.17374 5.16595 7.14971 6.42936 5.35672 8.45388C6.00015 9.37395 7.06844 10.2328 7.93216 10.9384C9.19092 10.0098 10.1509 9.10497 10.7727 8.32861C11.1626 8.80687 11.6022 9.12508 12.0209 9.3911C10.9393 11.2383 9.72554 12.2524 8.22667 13.221C5.97532 12.0246 4.16563 9.95362 3.28608 8.20254C4.93466 5.47395 7.5204 3.63158 10.4585 2.60484C9.9825 1.76792 9.35859 0.98852 9.03824 0Z" fill="#FFD001"/>
</svg>
